<svg width="26" height="27" viewBox="0 0 26 27" fill="none" xmlns="http://www.w3.org/2000/svg">
<circle cx="12.7539" cy="13.4853" r="12.3689" fill="white" stroke="#C5C5C5" stroke-width="0.769983"/>
<path d="M13.5727 15.0713C13.1821 14.6808 12.549 14.6808 12.1584 15.0713L8.83229 18.3975C8.44176 18.788 7.80465 18.7841 7.41412 18.3936C7.0236 18.003 7.01965 17.3659 7.41017 16.9754L10.7363 13.6492C11.1269 13.2587 11.1269 12.6255 10.7363 12.235L7.41017 8.90886C7.01965 8.51833 7.0236 7.88122 7.41412 7.49069C7.80465 7.10017 8.44176 7.09622 8.83229 7.48674L12.1584 10.8129C12.549 11.2034 13.1821 11.2034 13.5727 10.8129L16.8988 7.48674C17.2893 7.09622 17.9265 7.10017 18.317 7.49069C18.7075 7.88122 18.7115 8.51833 18.3209 8.90886L14.9948 12.235C14.6042 12.6255 14.6042 13.2587 14.9948 13.6492L18.3209 16.9754C18.7115 17.3659 18.7075 18.003 18.317 18.3936C17.9265 18.7841 17.2893 18.788 16.8988 18.3975L13.5727 15.0713Z" fill="#C5C5C5"/>
</svg>
