<svg width="20" height="20" viewBox="0 0 20 20" fill="none" xmlns="http://www.w3.org/2000/svg">
<path d="M1.3257 11.1887C1.21375 9.84156 1.11136 8.45313 1.11136 7.03454C1.11136 5.938 1.17254 4.53204 1.25202 3.47667H9.28035V13.9552C8.37618 14.0882 7.44847 14.2007 6.50302 14.2007C5.96951 14.2007 5.44165 14.1648 4.92048 14.1097C4.59414 14.0752 4.27043 14.0332 3.94959 13.9876C2.54049 13.7875 1.44357 12.6071 1.3257 11.1887Z" fill="white"/>
<path d="M6.50291 6.32877C9.88412 6.32877 11.786 5.38975 11.786 3.72039C11.786 3.322 11.6777 2.96521 11.4668 2.65285C10.794 1.65632 9.07721 1.11201 6.50291 1.11201C3.1217 1.11201 1.21977 2.05103 1.21977 3.72039C1.21977 5.04881 2.42415 5.91474 4.61992 6.21304C5.18348 6.2896 5.81234 6.32877 6.50291 6.32877Z" fill="white"/>
<path fill-rule="evenodd" clip-rule="evenodd" d="M1.33531 2.36784C1.94728 2.41393 2.40601 2.94739 2.35992 3.55936C2.28218 4.59166 2.2224 5.96943 2.2224 7.03378C2.2224 8.40284 2.32124 9.75193 2.43292 11.0959C2.50854 12.0059 3.21839 12.7607 4.10567 12.8867C4.36257 12.9232 4.61783 12.9568 4.87257 12.9858C5.48232 13.0553 5.92033 13.6059 5.85088 14.2157C5.78143 14.8254 5.23083 15.2634 4.62107 15.194C4.3405 15.162 4.06407 15.1255 3.79316 15.087C1.86225 14.8127 0.378269 13.2067 0.218161 11.28C0.10595 9.92965 0 8.50189 0 7.03378C0 5.90505 0.0625827 4.47089 0.143803 3.39245C0.189891 2.78049 0.723349 2.32176 1.33531 2.36784Z" fill="#52C1FF"/>
<path fill-rule="evenodd" clip-rule="evenodd" d="M0.975985 6.78594C1.58511 6.7112 2.1395 7.14441 2.21424 7.75354C2.27797 8.27296 3.00044 9.08475 4.41151 9.19328C5.0234 9.24035 5.48129 9.77454 5.43422 10.3864C5.38716 10.9983 4.85297 11.4562 4.24108 11.4091C2.25781 11.2566 0.25201 10.0098 0.0083851 8.0242C-0.0663544 7.41507 0.366855 6.86068 0.975985 6.78594Z" fill="#52C1FF"/>
<path fill-rule="evenodd" clip-rule="evenodd" d="M3.08514 2.78575C2.45872 3.09503 2.3308 3.41571 2.3308 3.71958C2.3308 3.98861 2.4282 4.21892 2.75109 4.45444C3.1184 4.72236 3.76405 4.97457 4.76933 5.11114C5.37744 5.19375 5.80344 5.7537 5.72083 6.36181C5.63821 6.96992 5.07827 7.39592 4.47016 7.31331C3.27967 7.15158 2.22524 6.82167 1.44143 6.24995C0.613184 5.64582 0.108398 4.77895 0.108398 3.71958C0.108398 2.35408 0.931435 1.37057 2.10128 0.792999C3.22011 0.240613 4.73783 0 6.50273 0C7.85799 0 9.05128 0.142081 10.0288 0.447186C10.9966 0.749227 11.8576 1.24526 12.3876 2.03025C12.731 2.53888 12.5971 3.22958 12.0884 3.57298C11.5798 3.91639 10.8891 3.78245 10.5457 3.27382C10.4029 3.06228 10.0691 2.7879 9.36668 2.56865C8.67405 2.35247 7.72177 2.2224 6.50273 2.2224C4.88643 2.2224 3.76258 2.45129 3.08514 2.78575Z" fill="#52C1FF"/>
<path d="M10.8759 18.6766C11.7091 18.7949 12.5618 18.8896 13.4293 18.8896C14.2969 18.8896 15.1496 18.7949 15.9828 18.6766C17.3919 18.4764 18.4888 17.296 18.6067 15.8777C18.7186 14.5305 18.821 13.1421 18.821 11.7235C18.821 10.5133 18.7465 9.32504 18.6551 8.16563H8.17835C8.09887 9.221 8.03769 10.627 8.03769 11.7235C8.03769 13.1421 8.14009 14.5305 8.25203 15.8777C8.3699 17.296 9.46682 18.4764 10.8759 18.6766Z" fill="white"/>
<path fill-rule="evenodd" clip-rule="evenodd" d="M7.07013 8.08137C7.11379 7.50168 7.59687 7.05362 8.17819 7.05362H18.6549C19.2348 7.05362 19.7171 7.49945 19.7627 8.07749C19.8549 9.24688 19.932 10.469 19.932 11.7227C19.932 13.1908 19.8261 14.6186 19.7139 15.9689C19.5538 17.8956 18.0698 19.5017 16.1389 19.7759C15.2867 19.8969 14.3741 20 13.4292 20C12.4843 20 11.5717 19.8969 10.7195 19.7759C8.7886 19.5017 7.3046 17.8956 7.14449 15.9689C7.03228 14.6186 6.92633 13.1908 6.92633 11.7227C6.92633 10.594 6.98891 9.1598 7.07013 8.08137ZM9.22103 9.27602C9.17748 10.0958 9.14873 10.9846 9.14873 11.7227C9.14873 13.0918 9.24757 14.4408 9.35925 15.7848C9.43487 16.6948 10.1447 17.4496 11.032 17.5756C11.8462 17.6912 12.6389 17.7776 13.4292 17.7776C14.2194 17.7776 15.0121 17.6912 15.8264 17.5756C16.7136 17.4496 17.4235 16.6948 17.4991 15.7848C17.6108 14.4408 17.7096 13.0918 17.7096 11.7227C17.7096 10.9019 17.6741 10.0872 17.6214 9.27602H9.22103Z" fill="#52C1FF"/>
<path fill-rule="evenodd" clip-rule="evenodd" d="M18.9563 11.4749C19.5654 11.5496 19.9986 12.104 19.9239 12.7132C19.6803 14.6987 17.6745 15.9456 15.6912 16.0981C14.9625 16.1542 14.2052 16.1961 13.4293 16.1961C12.6534 16.1961 11.8961 16.1542 11.1674 16.0981C9.18414 15.9456 7.17834 14.6987 6.93472 12.7132C6.85998 12.104 7.29319 11.5496 7.90232 11.4749C8.51145 11.4002 9.06583 11.8334 9.14057 12.4425C9.2043 12.9619 9.92677 13.7737 11.3378 13.8822C12.0357 13.9359 12.7313 13.9737 13.4293 13.9737C14.1273 13.9737 14.8229 13.9359 15.5208 13.8822C16.9318 13.7737 17.6543 12.9619 17.718 12.4425C17.7928 11.8334 18.3472 11.4002 18.9563 11.4749Z" fill="#52C1FF"/>
<path d="M13.4292 11.0177C16.8104 11.0177 18.7124 10.0787 18.7124 8.40934C18.7124 6.73998 16.8104 5.80096 13.4292 5.80096C10.048 5.80096 8.1461 6.73998 8.1461 8.40934C8.1461 10.0787 10.048 11.0177 13.4292 11.0177Z" fill="white"/>
<path fill-rule="evenodd" clip-rule="evenodd" d="M10.0124 7.4747C9.38603 7.78398 9.2581 8.10466 9.2581 8.40852C9.2581 8.71239 9.38603 9.03307 10.0124 9.34235C10.6899 9.67681 11.8137 9.9057 13.43 9.9057C15.0463 9.9057 16.1702 9.67681 16.8476 9.34235C17.4741 9.03307 17.602 8.71239 17.602 8.40852C17.602 8.10466 17.4741 7.78398 16.8476 7.4747C16.1702 7.14024 15.0463 6.91135 13.43 6.91135C11.8137 6.91135 10.6899 7.14024 10.0124 7.4747ZM9.02859 5.48195C10.1474 4.92956 11.6651 4.68895 13.43 4.68895C15.195 4.68895 16.7127 4.92956 17.8315 5.48195C19.0013 6.05952 19.8244 7.04303 19.8244 8.40852C19.8244 9.77402 19.0013 10.7575 17.8315 11.3351C16.7127 11.8875 15.195 12.1281 13.43 12.1281C11.6651 12.1281 10.1474 11.8875 9.02859 11.3351C7.85874 10.7575 7.03571 9.77402 7.03571 8.40852C7.03571 7.04303 7.85874 6.05952 9.02859 5.48195Z" fill="#52C1FF"/>
</svg>
