<svg width="23" height="22" viewBox="0 0 23 22" fill="none" xmlns="http://www.w3.org/2000/svg">
<path fill-rule="evenodd" clip-rule="evenodd" d="M5.41602 1.61816C5.9683 1.61816 6.41602 2.06588 6.41602 2.61816V4.77672C6.41602 5.329 5.9683 5.77672 5.41602 5.77672C4.86373 5.77672 4.41602 5.329 4.41602 4.77672V2.61816C4.41602 2.06588 4.86373 1.61816 5.41602 1.61816Z" fill="#52C1FF"/>
<path fill-rule="evenodd" clip-rule="evenodd" d="M11.0366 0C11.5889 0 12.0366 0.447715 12.0366 1V4.77747C12.0366 5.32975 11.5889 5.77747 11.0366 5.77747C10.4843 5.77747 10.0366 5.32975 10.0366 4.77747V1C10.0366 0.447715 10.4843 0 11.0366 0Z" fill="#52C1FF"/>
<path fill-rule="evenodd" clip-rule="evenodd" d="M16.6572 1.61816C17.2095 1.61816 17.6572 2.06588 17.6572 2.61816V4.77672C17.6572 5.329 17.2095 5.77672 16.6572 5.77672C16.1049 5.77672 15.6572 5.329 15.6572 4.77672V2.61816C15.6572 2.06588 16.1049 1.61816 16.6572 1.61816Z" fill="#52C1FF"/>
<path d="M1.61732 20.1385C1.71849 20.6287 2.13799 21.0001 2.63848 21.0001H19.4347C19.9352 21.0001 20.354 20.6284 20.4581 20.1388C20.7274 18.8725 21.0732 18.1976 21.0732 14.7881C21.0732 11.3787 20.7274 10.7038 20.4581 9.43747C20.354 8.94793 19.9352 8.57617 19.4347 8.57617L2.63848 8.57617C2.13799 8.57617 1.71849 8.94763 1.61732 9.43778C1.34771 10.7439 1 11.5019 1 14.7881C1 18.0743 1.34771 18.8324 1.61732 20.1385Z" fill="white"/>
<path fill-rule="evenodd" clip-rule="evenodd" d="M2.6284 9.58289C2.61577 9.5937 2.60214 9.61341 2.59667 9.63994C2.53657 9.9311 2.48084 10.1667 2.42829 10.3888C2.34406 10.7448 2.26802 11.0662 2.19531 11.5265C2.08514 12.2238 2 13.1801 2 14.7881C2 16.3962 2.08514 17.3525 2.19531 18.0498C2.26802 18.5101 2.34406 18.8315 2.42829 19.1875C2.48084 19.4096 2.53657 19.6452 2.59667 19.9363C2.60215 19.9629 2.61578 19.9826 2.6284 19.9934C2.63383 19.998 2.63752 19.9997 2.6385 20.0001H19.4345C19.4356 19.9996 19.4395 19.9978 19.4452 19.993C19.4588 19.9814 19.4738 19.9599 19.48 19.9308C19.541 19.6438 19.5968 19.4169 19.649 19.2045C19.7326 18.8646 19.807 18.562 19.8791 18.1097C19.9882 17.4255 20.0732 16.4606 20.0732 14.7881C20.0732 13.1157 19.9882 12.1508 19.8791 11.4666C19.807 11.0143 19.7326 10.7117 19.649 10.3718C19.5968 10.1594 19.541 9.93252 19.48 9.64547C19.4738 9.61642 19.4588 9.59493 19.4452 9.58331C19.4395 9.57846 19.4356 9.57664 19.4345 9.57617L2.6385 9.57617C2.63752 9.57657 2.63383 9.57825 2.6284 9.58289ZM0.637962 9.23563C0.826465 8.32242 1.62248 7.57617 2.63848 7.57617L19.4347 7.57617C20.4524 7.57617 21.2436 8.32375 21.4362 9.22948C21.4727 9.40082 21.5171 9.58422 21.5647 9.78073C21.6616 10.1805 21.7717 10.6345 21.8541 11.1516C21.9853 11.9738 22.0732 13.0511 22.0732 14.7881C22.0732 16.5252 21.9853 17.6025 21.8541 18.4246C21.7717 18.9418 21.6616 19.3958 21.5647 19.7956C21.5171 19.9921 21.4727 20.1755 21.4362 20.3468C21.2436 21.2525 20.4524 22.0001 19.4347 22.0001H2.63848C1.62248 22.0001 0.826466 21.2539 0.637963 20.3407C0.600076 20.1571 0.554493 19.9621 0.505993 19.7545C0.409632 19.3422 0.301751 18.8806 0.219808 18.3619C0.0887209 17.5322 0 16.4663 0 14.7881C0 13.11 0.0887209 12.0441 0.219808 11.2144C0.30175 10.6957 0.409631 10.2341 0.505992 9.82175C0.554493 9.61422 0.600075 9.41917 0.637962 9.23563Z" fill="#52C1FF"/>
<path d="M13.4452 14.7877C13.4452 16.118 12.3668 17.1965 11.0365 17.1965C9.70613 17.1965 8.62769 16.118 8.62769 14.7877C8.62769 13.4574 9.70613 12.3789 11.0365 12.3789C12.3668 12.3789 13.4452 13.4574 13.4452 14.7877Z" fill="white"/>
<path fill-rule="evenodd" clip-rule="evenodd" d="M11.0365 13.3789C10.2584 13.3789 9.62769 14.0096 9.62769 14.7877C9.62769 15.5657 10.2584 16.1965 11.0365 16.1965C11.8145 16.1965 12.4452 15.5657 12.4452 14.7877C12.4452 14.0096 11.8145 13.3789 11.0365 13.3789ZM7.62769 14.7877C7.62769 12.9051 9.15385 11.3789 11.0365 11.3789C12.9191 11.3789 14.4452 12.9051 14.4452 14.7877C14.4452 16.6703 12.9191 18.1965 11.0365 18.1965C9.15385 18.1965 7.62769 16.6703 7.62769 14.7877Z" fill="#52C1FF"/>
</svg>
