<svg width="18" height="20" viewBox="0 0 18 20" fill="none" xmlns="http://www.w3.org/2000/svg">
<path d="M1.11108 14.8733C1.11108 9.51917 5.37765 7.51138 8.93312 7.51138C12.4886 7.51138 16.7552 9.51909 16.7552 14.8732C16.7552 18.8888 11.7775 18.8889 8.93312 18.8889C6.08874 18.8889 1.11108 18.8888 1.11108 14.8733Z" fill="white"/>
<path fill-rule="evenodd" clip-rule="evenodd" d="M3.00814 8.30635C4.75652 6.95121 6.96878 6.4003 8.93312 6.4003C10.8975 6.4003 13.1097 6.95119 14.8581 8.30631C16.6471 9.6929 17.8662 11.8608 17.8662 14.8732C17.8662 16.129 17.4681 17.1544 16.7567 17.9403C16.0673 18.7021 15.1547 19.1611 14.2434 19.447C12.4798 20.0003 10.3849 20.0001 8.99915 20C8.97696 20 8.95495 20 8.93312 20C8.9113 20 8.88929 20 8.86709 20C7.48137 20.0001 5.38645 20.0003 3.62286 19.447C2.71157 19.1611 1.79897 18.7021 1.10951 17.9404C0.398199 17.1544 0 16.129 0 14.8733C0 11.8609 1.21915 9.69296 3.00814 8.30635ZM4.36947 10.0627C3.1363 11.0185 2.22217 12.5316 2.22217 14.8733C2.22217 15.6253 2.44618 16.1057 2.75706 16.4492C3.0898 16.8168 3.59939 17.1107 4.28806 17.3268C5.69615 17.7685 7.47331 17.7778 8.93312 17.7778C10.3929 17.7778 12.1701 17.7685 13.5782 17.3268C14.2668 17.1107 14.7764 16.8168 15.1092 16.4492C15.4201 16.1057 15.6441 15.6252 15.6441 14.8732C15.6441 12.5315 14.7299 11.0185 13.4968 10.0627C12.223 9.07543 10.5243 8.62247 8.93312 8.62247C7.34199 8.62247 5.64324 9.07544 4.36947 10.0627Z" fill="#52C1FF"/>
<path fill-rule="evenodd" clip-rule="evenodd" d="M8.93312 5.06644C5.28286 5.06644 2.66435 6.81777 1.89674 7.58539C1.46283 8.01929 0.759335 8.01929 0.325429 7.58539C-0.108476 7.15148 -0.108476 6.44798 0.325429 6.01408C1.45407 4.88544 4.61913 2.84427 8.93312 2.84427C13.2471 2.84427 16.4122 4.88544 17.5408 6.01408C17.9747 6.44798 17.9747 7.15148 17.5408 7.58539C17.1069 8.01929 16.4034 8.01929 15.9695 7.58539C15.2019 6.81777 12.5834 5.06644 8.93312 5.06644Z" fill="#52C1FF"/>
<path fill-rule="evenodd" clip-rule="evenodd" d="M6.0889 0C6.70253 0 7.19998 0.49745 7.19998 1.11108C7.19998 1.40735 7.298 1.87648 7.55946 2.23961C7.78012 2.54609 8.15765 2.84438 8.93328 2.84438C9.7089 2.84438 10.0864 2.54609 10.3071 2.23961C10.5685 1.87648 10.6666 1.40735 10.6666 1.11108C10.6666 0.49745 11.164 0 11.7777 0C12.3913 0 12.8887 0.49745 12.8887 1.11108C12.8887 1.76295 12.7023 2.71601 12.1105 3.53803C11.4778 4.41671 10.4332 5.06655 8.93328 5.06655C7.4334 5.06655 6.38874 4.41671 5.75609 3.53803C5.16423 2.71601 4.97781 1.76295 4.97781 1.11108C4.97781 0.49745 5.47526 0 6.0889 0Z" fill="#52C1FF"/>
</svg>
