<svg width="20" height="20" viewBox="0 0 20 20" fill="none" xmlns="http://www.w3.org/2000/svg">
<path d="M10.0001 19.0909C15.8183 19.0909 19.091 15.8182 19.091 10C19.091 4.18182 15.8183 0.909088 10.0001 0.909088C4.18191 0.909088 0.90918 4.18182 0.90918 10C0.90918 15.8182 4.18191 19.0909 10.0001 19.0909Z" fill="white"/>
<path fill-rule="evenodd" clip-rule="evenodd" d="M3.91555 3.91555C2.58649 5.24462 1.81818 7.25824 1.81818 10C1.81818 12.7418 2.58649 14.7554 3.91555 16.0844C5.24462 17.4135 7.25824 18.1818 10 18.1818C12.7418 18.1818 14.7554 17.4135 16.0844 16.0844C17.4135 14.7554 18.1818 12.7418 18.1818 10C18.1818 7.25824 17.4135 5.24462 16.0844 3.91555C14.7554 2.58649 12.7418 1.81818 10 1.81818C7.25824 1.81818 5.24462 2.58649 3.91555 3.91555ZM2.6299 2.6299C4.39175 0.868058 6.92357 0 10 0C13.0764 0 15.6083 0.868058 17.3701 2.6299C19.1319 4.39175 20 6.92357 20 10C20 13.0764 19.1319 15.6083 17.3701 17.3701C15.6083 19.1319 13.0764 20 10 20C6.92357 20 4.39175 19.1319 2.6299 17.3701C0.868058 15.6083 0 13.0764 0 10C0 6.92357 0.868058 4.39175 2.6299 2.6299Z" fill="#52C1FF"/>
<path d="M8.90898 11.5854V11.2364C8.90898 10.7418 9.00595 10.3345 9.19989 10.0145C9.40353 9.69453 9.72837 9.42787 10.1744 9.21453L10.4217 9.09817C10.8581 8.89453 11.1926 8.67635 11.4253 8.44362C11.6581 8.2109 11.7744 7.90059 11.7744 7.51271C11.7744 7.2315 11.7017 6.99393 11.5563 6.79999C11.4205 6.59635 11.2266 6.4412 10.9744 6.33453C10.7223 6.22786 10.4266 6.17453 10.0872 6.17453C9.73807 6.17453 9.42292 6.23271 9.14171 6.34908C8.87019 6.46544 8.65201 6.63999 8.48716 6.87271C8.33201 7.10544 8.25443 7.39635 8.25443 7.74544V8.06544H6.36353V7.77453C6.36353 7.10544 6.52837 6.52847 6.85807 6.04362C7.18777 5.55877 7.63383 5.19029 8.19625 4.93817C8.75868 4.67635 9.38898 4.54544 10.0872 4.54544C10.7756 4.54544 11.3866 4.6715 11.9199 4.92362C12.4629 5.17574 12.8896 5.52483 13.1999 5.9709C13.5102 6.41696 13.6653 6.9309 13.6653 7.51271C13.6653 8.09453 13.5587 8.57453 13.3453 8.95271C13.132 9.3212 12.8605 9.62181 12.5308 9.85453C12.2108 10.0776 11.8811 10.2715 11.5417 10.4363L11.2944 10.5527C11.1199 10.6303 10.9987 10.7273 10.9308 10.8436C10.8629 10.9503 10.829 11.1103 10.829 11.3236V11.5854H8.90898ZM9.92716 15.1345C9.53928 15.1345 9.20959 15.0085 8.93807 14.7563C8.67625 14.4945 8.54534 14.16 8.54534 13.7527C8.54534 13.3454 8.67625 13.0157 8.93807 12.7636C9.20959 12.5018 9.53928 12.3709 9.92716 12.3709C10.3247 12.3709 10.6544 12.5018 10.9163 12.7636C11.1781 13.0157 11.309 13.3454 11.309 13.7527C11.309 14.16 11.1781 14.4945 10.9163 14.7563C10.6544 15.0085 10.3247 15.1345 9.92716 15.1345Z" fill="#52C1FF"/>
</svg>
