<svg width="20" height="20" viewBox="0 0 20 20" fill="none" xmlns="http://www.w3.org/2000/svg">
<path d="M5.55073 2.27766C6.92711 1.45405 8.50133 1.01881 10.1057 1.01831C11.4406 1.01753 12.7584 1.31774 13.961 1.89659C15.1635 2.47543 16.2198 3.31797 17.051 4.3614C17.8823 5.40483 18.467 6.62223 18.7617 7.92287C19.0565 9.2235 19.0535 10.5738 18.7531 11.8732C18.4527 13.1725 17.8627 14.3873 17.0269 15.4271C16.1911 16.4669 15.1311 17.3049 13.9261 17.8785C12.721 18.452 11.4019 18.7465 10.067 18.7399C8.95293 18.7344 7.85186 18.5193 6.82087 18.1079L1.6145 18.9739C1.23534 19.037 0.925408 18.674 1.04752 18.3099L2.40314 14.2678C1.71232 13.0573 1.31553 11.6984 1.24888 10.3009C1.17252 8.6999 1.53228 7.1082 2.28983 5.69531C3.04738 4.28243 4.17436 3.10128 5.55073 2.27766Z" fill="white"/>
<path fill-rule="evenodd" clip-rule="evenodd" d="M10.1055 1.55258e-06C11.5936 -0.000831877 13.0628 0.333886 14.4035 0.979212L13.966 1.88617L14.4035 0.979212C15.7442 1.62458 16.9219 2.56394 17.8487 3.72729C18.7754 4.89063 19.4274 6.24795 19.756 7.69805L18.7618 7.92288L19.756 7.69806C20.0846 9.14816 20.0813 10.6537 19.7464 12.1023C19.4115 13.551 18.7536 14.9054 17.8217 16.0647C16.8899 17.224 15.7081 18.1583 14.3646 18.7978C13.021 19.4373 11.5503 19.7656 10.062 19.7582C8.91763 19.7526 7.78555 19.5485 6.71555 19.1578L1.78198 19.9784C0.644486 20.1677 -0.285298 19.0788 0.0810399 17.9864L1.29644 14.3624C0.662643 13.1191 0.297631 11.7517 0.230749 10.3494C0.145615 8.56438 0.546715 6.78976 1.39133 5.2145C2.23594 3.63924 3.49244 2.32235 5.02699 1.40408C6.56146 0.485862 8.31649 0.000610707 10.1052 1.67397e-06M13.5186 2.81399C12.4542 2.30167 11.2878 2.03596 10.1064 2.03665L10.1061 2.03665C8.68608 2.03709 7.29277 2.42231 6.07458 3.15127C4.85639 3.88024 3.85892 4.92564 3.18843 6.17615C2.51794 7.42666 2.19953 8.83544 2.26711 10.2524C2.32611 11.4894 2.67729 12.6921 3.28872 13.7635C3.43245 14.0153 3.46191 14.3164 3.36972 14.5913L2.28345 17.8303L6.65349 17.1034C6.8373 17.0728 7.02598 17.0932 7.19903 17.1622C8.11154 17.5263 9.08607 17.7167 10.0721 17.7216C11.2536 17.7275 12.4211 17.4668 13.4877 16.9592C14.5543 16.4515 15.4924 15.7098 16.2321 14.7895C16.9718 13.8692 17.4941 12.794 17.76 11.644C18.0258 10.494 18.0285 9.29887 17.7676 8.14771C17.5068 6.99655 16.9892 5.91905 16.2535 4.99554C15.5178 4.07202 14.5829 3.32631 13.5186 2.81399ZM1.44712 17.9695C1.4474 17.9694 1.44767 17.9694 1.44794 17.9693L1.44712 17.9695Z" fill="#52C1FF"/>
<path d="M10.2207 6.0426L10.2207 9.33852" stroke="#52C1FF" stroke-width="2" stroke-linecap="round"/>
<ellipse cx="10.2207" cy="12.9858" rx="1.44577" ry="1.44433" fill="#52C1FF"/>
</svg>
