<svg width="20" height="20" viewBox="0 0 20 20" fill="none" xmlns="http://www.w3.org/2000/svg">
<path d="M13.9918 2.78407C13.5925 2.38476 13.6411 2.43329 13.3481 2.16308C12.3695 1.26051 10.8453 1.33833 9.83607 2.20648C9.36864 2.60857 8.89622 3.04714 8.12375 3.81962C7.36046 4.58291 6.91883 5.05757 6.51617 5.52405C5.63558 6.54423 5.57058 8.08867 6.47871 9.0844C6.74003 9.37092 6.68291 9.3189 7.06996 9.70595C7.45701 10.093 7.40484 10.0357 7.69136 10.297C8.68709 11.2052 10.2315 11.1402 11.2517 10.2596C11.7182 9.85693 12.1928 9.41531 12.9561 8.65201C13.7286 7.87954 14.1672 7.40713 14.5693 6.93969C15.4374 5.93046 15.5152 4.40625 14.6127 3.42767C14.3425 3.13475 14.3911 3.18331 13.9918 2.78407Z" fill="white"/>
<path fill-rule="evenodd" clip-rule="evenodd" d="M13.6596 3.87015C13.7139 3.92753 13.7671 3.98601 13.8775 4.10565C14.3869 4.65797 14.3973 5.60596 13.811 6.28756C13.4301 6.73035 13.0099 7.18387 12.2489 7.9449C11.4968 8.69698 11.0406 9.12067 10.5981 9.50259C9.91483 10.0924 8.94317 10.0854 8.36507 9.55819C8.29088 9.49052 8.24336 9.4477 8.20727 9.41517C8.16472 9.37682 8.13805 9.35278 8.10226 9.31922C8.04471 9.26525 7.97217 9.1941 7.77691 8.99884C7.58166 8.80359 7.51047 8.73101 7.45645 8.67341C7.42285 8.63758 7.39877 8.61087 7.36034 8.56823C7.32781 8.53214 7.285 8.48464 7.21742 8.41054C6.69018 7.83244 6.6832 6.86078 7.27302 6.17748C7.65494 5.73501 8.07863 5.2788 8.83071 4.52672C9.59174 3.76569 10.0453 3.34548 10.488 2.96458C11.1696 2.37826 12.1176 2.38874 12.67 2.89816C12.7896 3.00851 12.8481 3.06171 12.9055 3.11608C12.9835 3.19004 13.0596 3.26615 13.2846 3.49118C13.5095 3.71614 13.5856 3.79212 13.6596 3.87015ZM15.2755 2.67146C15.0711 2.44954 15.0679 2.44609 14.6988 2.07697C14.3295 1.70771 14.3261 1.70457 14.104 1.49999C14.0806 1.47845 14.0548 1.45467 14.0259 1.428C12.6211 0.132286 10.5206 0.298387 9.18378 1.44837C8.69171 1.87165 8.20041 2.3286 7.41649 3.11251C6.64198 3.88703 6.18241 4.38014 5.75903 4.87063C4.58767 6.22767 4.45068 8.3449 5.7397 9.75826C5.79343 9.81717 5.8343 9.86243 5.86882 9.90066C6.00254 10.0488 6.04098 10.0913 6.3627 10.4131C6.68435 10.7347 6.72689 10.7731 6.87486 10.9067C6.9131 10.9412 6.95839 10.9821 7.01735 11.0359C8.4307 12.3249 10.5479 12.1879 11.905 11.0166C12.3955 10.5932 12.8886 10.1336 13.6631 9.35912C14.447 8.5752 14.904 8.0839 15.3272 7.59183C16.4772 6.25496 16.6433 4.15453 15.3476 2.74969C15.3209 2.72072 15.2971 2.69487 15.2755 2.67146Z" fill="#52C1FF"/>
<path fill-rule="evenodd" clip-rule="evenodd" d="M12.2616 7.93157C12.6522 7.54104 13.2853 7.54104 13.6759 7.93157L19.5464 13.8021C19.9369 14.1926 19.9369 14.8258 19.5464 15.2163C19.1559 15.6068 18.5227 15.6068 18.1322 15.2163L12.2616 9.34578C11.8711 8.95525 11.8711 8.32209 12.2616 7.93157Z" fill="#52C1FF"/>
<path d="M2.5 16.0711V18.9283H10.3571V16.0711C10.3571 15.2822 9.71755 14.6426 8.92857 14.6426H3.92857C3.13959 14.6426 2.5 15.2822 2.5 16.0711Z" fill="white"/>
<path fill-rule="evenodd" clip-rule="evenodd" d="M3.92857 15.6426C3.69188 15.6426 3.5 15.8345 3.5 16.0711V17.9283H9.35714V16.0711C9.35714 15.8345 9.16526 15.6426 8.92857 15.6426H3.92857ZM1.5 16.0711C1.5 14.7299 2.58731 13.6426 3.92857 13.6426H8.92857C10.2698 13.6426 11.3571 14.7299 11.3571 16.0711V19.9283H1.5V16.0711Z" fill="#52C1FF"/>
<path fill-rule="evenodd" clip-rule="evenodd" d="M0.0715332 18.9287C0.0715332 18.3764 0.519248 17.9287 1.07153 17.9287H11.7858C12.3381 17.9287 12.7858 18.3764 12.7858 18.9287C12.7858 19.481 12.3381 19.9287 11.7858 19.9287H1.07153C0.519248 19.9287 0.0715332 19.481 0.0715332 18.9287Z" fill="#52C1FF"/>
</svg>
