<svg width="20" height="20" viewBox="0 0 20 20" fill="none" xmlns="http://www.w3.org/2000/svg">
<path d="M1.07861 9.6312C1.07861 4.20309 3.30895 1.87676 4.0524 1.10132H15.9475C16.691 1.87676 18.9213 4.20309 18.9213 9.6312C18.9213 15.8347 13.0635 18.1228 10.0897 18.8983C7.1159 18.1228 1.07861 15.8347 1.07861 9.6312Z" fill="white"/>
<path fill-rule="evenodd" clip-rule="evenodd" d="M3.28162 0.330919C3.48453 0.11928 3.76237 0 4.05243 0H15.9476C16.2376 0 16.5155 0.11928 16.7184 0.330919C17.1173 0.747033 17.9558 1.62223 18.6821 3.13735C19.4078 4.6512 20 6.75624 20 9.6312C20 13.1497 18.316 15.5703 16.279 17.1727C14.2749 18.7492 11.9045 19.5617 10.3566 19.9653C10.1815 20.011 9.99793 20.011 9.8228 19.9653C8.27984 19.563 5.86779 18.7523 3.82069 17.1804C1.74226 15.5845 0 13.1634 0 9.6312C0 6.75624 0.592229 4.6512 1.31792 3.13735C2.04422 1.62223 2.88268 0.747033 3.28162 0.330919ZM4.51478 2.20264C4.16001 2.60045 3.68702 3.20562 3.25556 4.10566C2.68022 5.30587 2.15728 7.07805 2.15728 9.6312C2.15728 12.3026 3.43367 14.1273 5.11733 15.4201C6.7284 16.6572 8.67348 17.3685 10.0895 17.7595C11.496 17.3697 13.3955 16.6604 14.9624 15.4278C16.5978 14.1414 17.8427 12.3163 17.8427 9.6312C17.8427 7.07805 17.3198 5.30587 16.7444 4.10566C16.313 3.20561 15.84 2.60045 15.4852 2.20264H4.51478Z" fill="#52C1FF"/>
<path d="M10.0002 11.1485C11.6575 11.1485 13.0011 9.77665 13.0011 8.08446C13.0011 6.39226 11.6575 5.02046 10.0002 5.02046C8.34282 5.02046 6.99927 6.39226 6.99927 8.08446C6.99927 9.77665 8.34282 11.1485 10.0002 11.1485Z" fill="white"/>
<path fill-rule="evenodd" clip-rule="evenodd" d="M10.0002 6.12178C8.93857 6.12178 8.07794 7.0005 8.07794 8.08446C8.07794 9.16841 8.93857 10.0471 10.0002 10.0471C11.0618 10.0471 11.9225 9.16841 11.9225 8.08446C11.9225 7.0005 11.0618 6.12178 10.0002 6.12178ZM5.92065 8.08446C5.92065 5.78402 7.74713 3.91914 10.0002 3.91914C12.2533 3.91914 14.0798 5.78402 14.0798 8.08446C14.0798 10.3849 12.2533 12.2498 10.0002 12.2498C7.74713 12.2498 5.92065 10.3849 5.92065 8.08446Z" fill="#52C1FF"/>
<path d="M15.0115 16.7469C13.314 17.9067 11.4151 18.553 10.0894 18.8987C8.74522 18.5482 6.77509 17.8886 5.01953 16.6981C5.34546 16.2033 5.74267 15.7562 6.20137 15.3734C7.2733 14.4789 8.61517 13.9902 9.99961 13.9902C11.384 13.9902 12.7259 14.4789 13.7978 15.3734C14.2716 15.7688 14.6797 16.2327 15.0115 16.7469Z" fill="white"/>
<path fill-rule="evenodd" clip-rule="evenodd" d="M9.99964 15.0915C8.86402 15.0915 7.76331 15.4924 6.88403 16.2261C6.8104 16.2876 6.73871 16.351 6.66902 16.4164C7.87386 17.0651 9.11048 17.4897 10.0892 17.7599C11.0409 17.4962 12.2236 17.0848 13.3768 16.4607C13.2926 16.3796 13.2054 16.3014 13.1153 16.2261C12.236 15.4924 11.1353 15.0915 9.99964 15.0915ZM5.51878 14.5207C6.78336 13.4654 8.36639 12.8889 9.99964 12.8889C11.6329 12.8889 13.2159 13.4654 14.4805 14.5207C15.0394 14.9871 15.5209 15.5344 15.9123 16.141C16.2384 16.6464 16.104 17.3257 15.6114 17.6622C13.7713 18.9194 11.7413 19.6046 10.3564 19.9658C10.1812 20.0114 9.99767 20.0114 9.82254 19.9658C8.42318 19.6009 6.32164 18.9032 4.42278 17.6155C4.18358 17.4532 4.0176 17.2003 3.96162 16.9128C3.90564 16.6252 3.96427 16.3267 4.12454 16.0834C4.50904 15.4997 4.97765 14.9723 5.51878 14.5207Z" fill="#52C1FF"/>
</svg>
