<svg width="21" height="21" viewBox="0 0 21 21" fill="none" xmlns="http://www.w3.org/2000/svg">
<path d="M1.08579 4.71879C1.11337 4.44743 1.43364 4.3809 1.58113 4.60534L4.05139 8.36431C4.73421 9.40336 6.22043 9.31042 6.7816 8.19359L10.4149 0.962461C10.4806 0.83176 10.6095 0.75 10.75 0.75C10.8905 0.75 11.0194 0.83176 11.0851 0.962461L14.7184 8.19359C15.2796 9.31042 16.7658 9.40336 17.4486 8.36431L19.9189 4.60534C20.0664 4.3809 20.3866 4.44743 20.4142 4.71879C20.5963 6.50997 20.75 8.34889 20.75 10.2237C20.75 12.0985 20.5963 13.9374 20.4142 15.7286C20.1676 18.1549 18.3137 20.1064 16.0097 20.3768C14.2985 20.5776 12.5414 20.75 10.75 20.75C8.95859 20.75 7.20153 20.5776 5.49025 20.3768C3.18633 20.1064 1.3324 18.1549 1.08579 15.7286C0.903734 13.9374 0.75 12.0985 0.75 10.2237C0.75 8.34889 0.903734 6.50997 1.08579 4.71879Z" fill="white"/>
<path fill-rule="evenodd" clip-rule="evenodd" d="M10 3.11677L7.4039 8.25463C6.52708 9.9899 4.20486 10.1343 3.13794 8.51988L2.22886 7.1443C2.1758 7.93692 2.14286 8.73252 2.14286 9.53271C2.14286 11.1362 2.27514 12.7214 2.43659 14.3009C2.60305 15.9296 3.86255 17.2505 5.42249 17.4325C6.9412 17.6097 8.46199 17.757 10 17.757C11.538 17.757 13.0588 17.6097 14.5775 17.4325C16.1375 17.2505 17.3969 15.9296 17.5634 14.3009C17.7249 12.7214 17.8571 11.1362 17.8571 9.53271C17.8571 8.73252 17.8242 7.93692 17.7711 7.1443L16.8621 8.51988C15.7951 10.1343 13.4729 9.9899 12.5961 8.25463L10 3.11677ZM8.7537 0.78579C8.99796 0.302392 9.47756 0 10 0C10.5224 0 11.002 0.30239 11.2463 0.785795L14.4903 7.20595C14.6156 7.45385 14.9473 7.47447 15.0998 7.24384L17.3053 3.90645C17.6228 3.42609 18.1657 3.22199 18.6676 3.33211C19.1873 3.44614 19.6296 3.89482 19.6941 4.52589C19.8578 6.12693 20 7.80717 20 9.53271C20 11.2582 19.8578 12.9385 19.6941 14.5395C19.4202 17.2194 17.3691 19.3637 14.8149 19.6617C13.2778 19.8411 11.6609 20 10 20C8.33905 20 6.72224 19.8411 5.1851 19.6617C2.6309 19.3637 0.579802 17.2194 0.30589 14.5395C0.142243 12.9385 0 11.2582 0 9.53271C0 7.80717 0.142243 6.12693 0.305889 4.52588C0.370392 3.89482 0.81273 3.44614 1.3324 3.33211C1.83428 3.22199 2.37721 3.42609 2.69466 3.90644L1.81351 4.54446L2.69466 3.90644L4.90024 7.24384C5.05266 7.47447 5.38441 7.45385 5.50967 7.20595L8.7537 0.785791L9.70082 1.31013L9.72238 1.32207M8.7537 0.78579L9.70082 1.31013L8.7537 0.78579Z" fill="#52C1FF"/>
</svg>
