<svg width="20" height="20" viewBox="0 0 20 20" fill="none" xmlns="http://www.w3.org/2000/svg">
<path d="M10.0002 9.9266C11.7188 9.9266 13.112 8.53264 13.112 6.81311C13.112 5.09357 11.7188 3.69961 10.0002 3.69961C8.28162 3.69961 6.88843 5.09357 6.88843 6.81311C6.88843 8.53264 8.28162 9.9266 10.0002 9.9266Z" fill="white"/>
<path fill-rule="evenodd" clip-rule="evenodd" d="M10.0002 4.80132C8.88977 4.80132 7.98956 5.70203 7.98956 6.81311C7.98956 7.92419 8.88977 8.82489 10.0002 8.82489C11.1107 8.82489 12.0109 7.92419 12.0109 6.81311C12.0109 5.70203 11.1107 4.80132 10.0002 4.80132ZM5.78735 6.81311C5.78735 4.48512 7.67353 2.59791 10.0002 2.59791C12.3269 2.59791 14.2131 4.48512 14.2131 6.81311C14.2131 9.1411 12.3269 11.0283 10.0002 11.0283C7.67353 11.0283 5.78735 9.1411 5.78735 6.81311Z" fill="#52C1FF"/>
<path d="M15.0812 14.7355C14.8093 13.6395 14.1901 12.6584 13.3131 11.9413C12.3781 11.1766 11.2076 10.7589 9.99992 10.7589C8.79228 10.7589 7.62177 11.1766 6.68673 11.9413C5.80977 12.6584 5.19051 13.6394 4.9187 14.7354C5.18138 14.8231 5.45568 14.8843 5.73833 14.9158C7.12487 15.0705 8.5485 15.2033 9.99998 15.2033C11.4514 15.2033 12.8751 15.0705 14.2616 14.9158C14.5442 14.8843 14.8185 14.8231 15.0812 14.7355Z" fill="white"/>
<path fill-rule="evenodd" clip-rule="evenodd" d="M5.98988 11.0882C7.12158 10.1627 8.53827 9.65715 9.99991 9.65715C11.4615 9.65715 12.8782 10.1627 14.0099 11.0882C15.0714 11.9563 15.8208 13.1436 16.1498 14.4701C16.2882 15.0281 15.9745 15.5987 15.4295 15.7806C15.0945 15.8924 14.7443 15.9705 14.3836 16.0108C12.9876 16.1665 11.5146 16.305 9.99996 16.305C8.48531 16.305 7.01234 16.1665 5.61633 16.0108C5.25552 15.9705 4.90537 15.8924 4.57027 15.7805C4.02525 15.5986 3.71162 15.028 3.84999 14.4701C4.17897 13.1436 4.92847 11.9563 5.98988 11.0882ZM9.99991 11.8606C9.04626 11.8606 8.12193 12.1904 7.38354 12.7943C7.0069 13.1023 6.69045 13.472 6.4456 13.8843C7.62714 14.008 8.80839 14.1016 9.99996 14.1016C11.1915 14.1016 12.3727 14.008 13.5542 13.8843C13.3094 13.472 12.9929 13.1023 12.6163 12.7943C11.8779 12.1904 10.9536 11.8606 9.99991 11.8606Z" fill="#52C1FF"/>
<path fill-rule="evenodd" clip-rule="evenodd" d="M13.3193 0.983806C13.3844 0.37885 13.9274 -0.0587364 14.532 0.00642938C15.0458 0.0618105 15.555 0.120873 16.0543 0.178804C16.0893 0.182859 16.1242 0.186909 16.1591 0.190951C18.0746 0.413081 19.6017 1.93767 19.8174 3.85966C19.8769 4.39018 19.9375 4.93125 19.994 5.47808C20.0564 6.08331 19.6167 6.62462 19.0118 6.68711C18.4069 6.7496 17.8659 6.30962 17.8034 5.70438C17.7481 5.16878 17.6886 4.63714 17.6289 4.10549C17.5282 3.20746 16.8074 2.48429 15.9055 2.37971C15.8713 2.37574 15.837 2.37176 15.8027 2.36779C15.3015 2.30964 14.8007 2.25156 14.2961 2.19717C13.6915 2.132 13.2542 1.58876 13.3193 0.983806Z" fill="#52C1FF"/>
<path fill-rule="evenodd" clip-rule="evenodd" d="M13.3192 19.0162C13.3843 19.6211 13.9272 20.0587 14.5319 19.9936C15.0457 19.9382 15.5548 19.8791 16.0542 19.8212C16.0892 19.8171 16.1241 19.8131 16.1589 19.809C18.0744 19.5869 19.6016 18.0623 19.8173 16.1403C19.8768 15.6098 19.9374 15.0687 19.9939 14.5219C20.0563 13.9167 19.6166 13.3754 19.0117 13.3129C18.4068 13.2504 17.8658 13.6904 17.8033 14.2956C17.748 14.8312 17.6885 15.3629 17.6288 15.8945C17.5281 16.7925 16.8072 17.5157 15.9054 17.6203C15.8711 17.6243 15.8369 17.6282 15.8026 17.6322C15.3013 17.6904 14.8006 17.7484 14.296 17.8028C13.6914 17.868 13.254 18.4112 13.3192 19.0162Z" fill="#52C1FF"/>
<path fill-rule="evenodd" clip-rule="evenodd" d="M6.68046 0.983806C6.61533 0.37885 6.07239 -0.0587364 5.46777 0.00642938C4.95393 0.0618105 4.4448 0.120873 3.94542 0.178804C3.91046 0.182859 3.87555 0.186909 3.84069 0.190951C1.92519 0.413081 0.398017 1.93767 0.182355 3.85966C0.122827 4.39018 0.0622096 4.93125 0.00578022 5.47808C-0.0566769 6.08331 0.383065 6.62462 0.987971 6.68711C1.59288 6.7496 2.13388 6.30962 2.19634 5.70438C2.25161 5.16878 2.31115 4.63714 2.37081 4.10549C2.47157 3.20746 3.1924 2.48429 4.09423 2.37971C4.1285 2.37574 4.16278 2.37176 4.19705 2.36779C4.69829 2.30964 5.19902 2.25156 5.70362 2.19717C6.30825 2.132 6.74559 1.58876 6.68046 0.983806Z" fill="#52C1FF"/>
<path fill-rule="evenodd" clip-rule="evenodd" d="M6.68059 19.0162C6.61546 19.6211 6.07251 20.0587 5.46789 19.9936C4.95405 19.9382 4.44492 19.8791 3.94554 19.8212C3.91058 19.8171 3.87567 19.8131 3.84081 19.809C1.92531 19.5869 0.398139 18.0623 0.182477 16.1403C0.122949 15.6098 0.0623317 15.0687 0.00590229 14.5219C-0.0565548 13.9167 0.383187 13.3754 0.988093 13.3129C1.593 13.2504 2.134 13.6904 2.19646 14.2956C2.25173 14.8312 2.31128 15.3629 2.37093 15.8945C2.4717 16.7925 3.19252 17.5157 4.09435 17.6203C4.12863 17.6243 4.1629 17.6282 4.19717 17.6322C4.69841 17.6904 5.19915 17.7484 5.70375 17.8028C6.30837 17.868 6.74572 18.4112 6.68059 19.0162Z" fill="#52C1FF"/>
</svg>
