<svg width="13" height="20" viewBox="0 0 13 20" fill="none" xmlns="http://www.w3.org/2000/svg">
<path d="M6.00347 7.1431C3.32337 7.1431 0.779158 9.07105 1.09916 11.732C1.12403 11.9387 1.1537 12.1556 1.18818 12.3863C1.29077 13.0729 1.88944 13.5717 2.58362 13.5717H3.37712L3.95604 17.1658C4.11969 18.1818 4.99662 18.9288 6.02573 18.9288C7.05483 18.9288 7.93176 18.1818 8.09541 17.1658L8.67434 13.5717H9.47805C10.1677 13.5717 10.7646 13.0796 10.8698 12.398C10.9035 12.1803 10.9324 11.9746 10.9565 11.7774C11.2848 9.0975 8.70339 7.1431 6.00347 7.1431Z" fill="white"/>
<path fill-rule="evenodd" clip-rule="evenodd" d="M3.13157 9.24607C2.42297 9.86604 2.05151 10.6794 2.16272 11.6041C2.18613 11.7987 2.21436 12.0053 2.24763 12.228C2.26906 12.3714 2.40104 12.5003 2.58341 12.5003H3.37691C3.90287 12.5003 4.35106 12.882 4.4347 13.4013L5.01362 16.9955C5.09364 17.4922 5.52238 17.8574 6.02552 17.8574C6.52865 17.8574 6.9574 17.4922 7.03741 16.9955L7.61633 13.4013C7.69997 12.882 8.14816 12.5003 8.67412 12.5003H9.47784C9.66079 12.5003 9.78947 12.3724 9.81074 12.2346C9.84298 12.0257 9.87026 11.8313 9.89282 11.6472C10.0068 10.7163 9.6308 9.89214 8.91004 9.26185C8.17397 8.61817 7.10803 8.21455 6.00325 8.21455C4.90708 8.21455 3.85587 8.61237 3.13157 9.24607ZM1.72056 7.63334C2.85838 6.63784 4.41933 6.07169 6.00325 6.07169C7.5984 6.07169 9.17311 6.64527 10.3206 7.64877C11.4835 8.66565 12.234 10.1586 12.0198 11.9077C11.994 12.1179 11.9635 12.3348 11.9285 12.5615C11.7451 13.7494 10.7385 14.5904 9.58717 14.6407L9.153 17.3362C8.9057 18.8715 7.58058 20.0003 6.02552 20.0003C4.47045 20.0003 3.14533 18.8715 2.89804 17.3362L2.46379 14.6403C1.30765 14.585 0.305945 13.7335 0.128302 12.5447C0.0926245 12.3059 0.0614976 12.0787 0.035189 11.8599C-0.173614 10.1237 0.567031 8.64259 1.72056 7.63334Z" fill="#52C1FF"/>
<path d="M6.02824 6.78569C7.6062 6.78569 8.88538 5.5065 8.88538 3.92855C8.88538 2.35059 7.6062 1.07141 6.02824 1.07141C4.45028 1.07141 3.1711 2.35059 3.1711 3.92855C3.1711 5.5065 4.45028 6.78569 6.02824 6.78569Z" fill="white"/>
<path fill-rule="evenodd" clip-rule="evenodd" d="M6.02812 2.14286C5.0419 2.14286 4.24241 2.94235 4.24241 3.92857C4.24241 4.91479 5.0419 5.71429 6.02812 5.71429C7.01434 5.71429 7.81383 4.91479 7.81383 3.92857C7.81383 2.94235 7.01434 2.14286 6.02812 2.14286ZM2.09955 3.92857C2.09955 1.75888 3.85843 0 6.02812 0C8.19781 0 9.95669 1.75888 9.95669 3.92857C9.95669 6.09826 8.19781 7.85714 6.02812 7.85714C3.85843 7.85714 2.09955 6.09826 2.09955 3.92857Z" fill="#52C1FF"/>
</svg>
