<svg width="22" height="22" viewBox="0 0 22 22" fill="none" xmlns="http://www.w3.org/2000/svg">
<path d="M19.8489 8.53337C18.965 4.2374 15.1212 1 10.5169 1C5.25486 1 1 5.21375 1 10.4141C1 12.2024 1.50359 13.8674 2.37717 15.2959C1.9558 16.3031 1.52414 17.4953 1.24665 18.5847C1.09249 19.2014 1.6372 19.7152 2.25385 19.5508C3.3227 19.2527 4.49433 18.8314 5.5118 18.4203C6.45732 18.9958 7.50562 19.4172 8.62587 19.6433" stroke="white" stroke-linecap="round" stroke-linejoin="round"/>
<path d="M9.57157 15.1213C9.57157 12.0073 12.1306 9.46875 15.2858 9.46875C18.441 9.46875 21.0001 11.997 21.0001 15.1213C21.0001 16.2005 20.6918 17.2179 20.1573 18.0812C20.3629 18.5129 20.5684 19.0062 20.7226 19.5304C20.9076 20.1367 20.3629 20.6609 19.7462 20.4553C19.2324 20.2909 18.7493 20.0956 18.3177 19.9004C17.4338 20.4451 16.3958 20.7637 15.2755 20.7637C12.1204 20.7637 9.56128 18.2354 9.56128 15.1111L9.57157 15.1213Z" stroke="white" stroke-linejoin="round"/>
</svg>
