<svg width="22" height="22" viewBox="0 0 22 22" fill="none" xmlns="http://www.w3.org/2000/svg">
<path d="M9.50172 2.54063C9.45225 1.73498 8.83034 1.12721 8.01762 1.07774C7.36745 1.03534 6.46993 1 5.28972 1C4.10952 1 3.21199 1.03534 2.56182 1.07774C1.74911 1.12721 1.12721 1.74205 1.07774 2.54063C1.03534 3.18373 1 4.07419 1 5.24026C1 6.40633 1.03534 7.28972 1.07774 7.93989C1.12721 8.74554 1.74911 9.35331 2.56182 9.40278C3.21199 9.44518 4.10952 9.48051 5.28972 9.48051C6.46993 9.48051 7.36745 9.44518 8.01762 9.40278C8.83034 9.35331 9.45225 8.73847 9.50172 7.93989C9.54412 7.29678 9.57945 6.40633 9.57945 5.24026C9.57945 4.07419 9.54412 3.18373 9.50172 2.54063Z" stroke="white" stroke-linecap="round" stroke-linejoin="round"/>
<path d="M9.50172 13.8409C9.45225 13.0353 8.83034 12.4275 8.01762 12.378C7.36745 12.3356 6.46993 12.3003 5.28972 12.3003C4.10952 12.3003 3.21199 12.3356 2.56182 12.378C1.74911 12.4275 1.12721 13.0423 1.07774 13.8409C1.03534 14.484 1 15.3745 1 16.5406C1 17.7066 1.03534 18.59 1.07774 19.2402C1.12721 20.0458 1.74911 20.6536 2.56182 20.7031C3.21199 20.7455 4.10952 20.7808 5.28972 20.7808C6.46993 20.7808 7.36745 20.7455 8.01762 20.7031C8.83034 20.6536 9.45225 20.0388 9.50172 19.2402C9.54412 18.5971 9.57945 17.7066 9.57945 16.5406C9.57945 15.3745 9.54412 14.4911 9.50172 13.8409Z" stroke="white" stroke-linecap="round" stroke-linejoin="round"/>
<path d="M12.4558 2.05313C12.484 1.75632 12.7102 1.56551 13.0141 1.5443C13.537 1.50897 14.6042 1.47363 16.7172 1.47363C18.8303 1.47363 19.8974 1.51604 20.4204 1.5443C20.7172 1.56551 20.9504 1.75632 20.9787 2.05313C20.9928 2.20154 20.9999 2.39942 20.9999 2.64677C20.9999 2.89412 20.9928 3.092 20.9787 3.24041C20.9504 3.53722 20.7172 3.72804 20.4204 3.74924C19.8974 3.78457 18.8303 3.81991 16.7172 3.81991C14.6042 3.81991 13.537 3.77751 13.0141 3.74924C12.7173 3.72804 12.484 3.53722 12.4558 3.24041C12.4416 3.092 12.4346 2.89412 12.4346 2.64677C12.4346 2.39942 12.4416 2.20154 12.4558 2.05313Z" stroke="white" stroke-linecap="round" stroke-linejoin="round"/>
<path d="M12.4487 7.25451C12.4628 6.95063 12.689 6.73155 12.9929 6.71035C13.3886 6.68208 14.0812 6.65381 15.2897 6.65381C16.4982 6.65381 17.1907 6.68208 17.5865 6.71035C17.8974 6.73155 18.1165 6.95063 18.1306 7.25451C18.1377 7.40292 18.1448 7.59373 18.1448 7.82695C18.1448 8.06016 18.1448 8.25097 18.1306 8.39938C18.1094 8.70327 17.8904 8.92235 17.5865 8.94355C17.1907 8.97182 16.4982 9.00009 15.2897 9.00009C14.0812 9.00009 13.3886 8.97182 12.9929 8.94355C12.6819 8.92235 12.4628 8.70327 12.4487 8.39938C12.4416 8.25097 12.4346 8.06016 12.4346 7.82695C12.4346 7.59373 12.4346 7.40292 12.4487 7.25451Z" stroke="white" stroke-linecap="round" stroke-linejoin="round"/>
<path d="M12.4487 18.5548C12.4628 18.2509 12.689 18.0318 12.9929 18.0106C13.3886 17.9824 14.0812 17.9541 15.2897 17.9541C16.4982 17.9541 17.1907 17.9824 17.5865 18.0106C17.8974 18.0318 18.1165 18.2509 18.1306 18.5548C18.1377 18.7032 18.1448 18.894 18.1448 19.1272C18.1448 19.3605 18.1448 19.5513 18.1306 19.6997C18.1094 20.0036 17.8904 20.2226 17.5865 20.2438C17.1907 20.2721 16.4982 20.3004 15.2897 20.3004C14.0812 20.3004 13.3886 20.2721 12.9929 20.2438C12.6819 20.2226 12.4628 20.0036 12.4487 19.6997C12.4416 19.5513 12.4346 19.3605 12.4346 19.1272C12.4346 18.894 12.4346 18.7032 12.4487 18.5548Z" stroke="white" stroke-linecap="round" stroke-linejoin="round"/>
<path d="M12.4558 13.3534C12.484 13.0566 12.7102 12.8658 13.0141 12.8446C13.537 12.8093 14.6042 12.7739 16.7172 12.7739C18.8303 12.7739 19.8974 12.8163 20.4204 12.8446C20.7172 12.8658 20.9504 13.0566 20.9787 13.3534C20.9928 13.5018 20.9999 13.6997 20.9999 13.9471C20.9999 14.1944 20.9928 14.3923 20.9787 14.5407C20.9504 14.8375 20.7172 15.0283 20.4204 15.0495C19.8974 15.0849 18.8303 15.1202 16.7172 15.1202C14.6042 15.1202 13.537 15.0778 13.0141 15.0495C12.7173 15.0283 12.484 14.8375 12.4558 14.5407C12.4416 14.3923 12.4346 14.1944 12.4346 13.9471C12.4346 13.6997 12.4416 13.5018 12.4558 13.3534Z" stroke="white" stroke-linecap="round" stroke-linejoin="round"/>
</svg>
