<svg width="24" height="29" viewBox="0 0 24 29" fill="none" xmlns="http://www.w3.org/2000/svg">
<path d="M21.0072 9.93035C21.0072 14.8622 16.967 18.8607 11.9794 18.8607C6.99174 18.8607 2.93753 14.8622 2.93753 9.93035C2.93753 4.99846 6.97781 1 11.9794 1C16.9809 1 21.0072 4.99846 21.0072 9.93035Z" stroke="white" stroke-width="2" stroke-linecap="round" stroke-linejoin="round"/>
<path d="M8.329 18.0946C5.04108 19.0699 2.46368 21.3129 1.46059 24.1132C0.917244 25.6318 2.04575 27.0668 3.66185 27.3036C5.40334 27.5544 8.09218 27.7773 11.9653 27.7773C15.8383 27.7773 18.5272 27.5405 20.2687 27.3036C21.8848 27.0807 23.0272 25.6457 22.4699 24.1132C21.4668 21.299 18.8894 19.0559 15.6015 18.0946" stroke="white" stroke-width="2" stroke-linecap="round" stroke-linejoin="round"/>
<path d="M21.0072 9.93035C16.0196 9.93035 11.9794 5.93189 11.9794 1C11.9794 5.93189 7.93908 9.93035 2.93753 9.93035" stroke="white" stroke-width="2" stroke-linecap="round" stroke-linejoin="round"/>
<path d="M14.5423 14.0679C13.4138 15.7676 10.5159 15.7676 9.37349 14.0679" stroke="white" stroke-width="2" stroke-linecap="round" stroke-linejoin="round"/>
<path d="M8.7469 10.5573V10.8777" stroke="white" stroke-width="2" stroke-linecap="round" stroke-linejoin="round"/>
<path d="M15.1974 10.5573V10.8777" stroke="white" stroke-width="2" stroke-linecap="round" stroke-linejoin="round"/>
</svg>
