<svg width="22" height="19" viewBox="0 0 22 19" fill="none" xmlns="http://www.w3.org/2000/svg">
<path d="M1.48601 4.47357C0.639721 3.81871 0.952042 2.55935 2.0099 2.35786C5.58647 1.67277 12.5381 0.635058 19.4696 1.12873C20.6383 1.20932 21.3435 2.4183 20.8297 3.46609C17.8072 9.65204 13.4146 15.0723 11.0269 17.8026C10.3216 18.6086 9.05221 18.2459 8.91117 17.188C8.58877 14.9313 8.42757 12.6745 8.35705 11.5864C8.32683 11.1431 8.47795 10.7099 8.77012 10.3674L11.3795 7.3046L7.38987 8.00984C6.94657 8.09044 6.4932 7.99977 6.12043 7.75797C5.19355 7.15348 3.30955 5.88405 1.48601 4.48365V4.47357Z" stroke="white" stroke-linejoin="round"/>
</svg>
