<svg width="22" height="21" viewBox="0 0 22 21" fill="none" xmlns="http://www.w3.org/2000/svg">
<path d="M1.00286 4.7093C0.951484 5.51076 1.59881 6.17864 2.42082 6.17864H19.5802C20.3919 6.17864 21.0392 5.51076 20.9981 4.7093C20.9673 4.24692 20.9365 3.83592 20.9057 3.47629C20.8029 2.27411 19.8679 1.35963 18.6554 1.25688C17.0936 1.13358 14.5968 1 11.0005 1C7.40422 1 4.90739 1.13358 3.34557 1.25688C2.13312 1.34935 1.19808 2.27411 1.09533 3.47629C1.06451 3.83592 1.03369 4.24692 1.00286 4.7093Z" stroke="white" stroke-linecap="round" stroke-linejoin="round"/>
<path d="M2.43091 6.17871V11.3573C2.43091 14.1213 2.52338 16.1044 2.62613 17.4196C2.7186 18.6218 3.64336 19.5363 4.86609 19.6288C6.19158 19.7315 8.20549 19.824 11.0003 19.824C13.7951 19.824 15.809 19.7315 17.1345 19.6288C18.347 19.5363 19.282 18.6218 19.3745 17.4196C19.4772 16.1044 19.5697 14.1213 19.5697 11.3573V6.17871" stroke="white" stroke-linecap="round" stroke-linejoin="round"/>
<path d="M6.72607 10.689C6.7569 11.3672 7.34257 11.7782 8.031 11.7987C8.69888 11.8193 9.67502 11.8296 11.0108 11.8296C12.3465 11.8296 13.3227 11.8193 13.9905 11.7987C14.6687 11.7782 15.2647 11.3672 15.2955 10.689C15.2955 10.6068 15.2955 10.5144 15.2955 10.4116C15.2955 10.3089 15.2955 10.2267 15.2955 10.1342C15.2647 9.45603 14.679 9.04503 13.9905 9.02448C13.3227 9.00393 12.3465 8.99365 11.0108 8.99365C9.67502 8.99365 8.69888 9.00393 8.031 9.02448C7.35285 9.04503 6.7569 9.45603 6.72607 10.1342C6.72607 10.2164 6.72607 10.3089 6.72607 10.4116C6.72607 10.5144 6.72607 10.5966 6.72607 10.689Z" stroke="white" stroke-linecap="round" stroke-linejoin="round"/>
</svg>
