<svg width="14" height="14" viewBox="0 0 14 14" fill="none" xmlns="http://www.w3.org/2000/svg">
<path d="M1.00245 11.148C1.10968 12.108 1.87704 12.875 2.83655 12.986C3.92077 13.1114 5.04112 13.2351 6.18741 13.2351C7.3337 13.2351 8.45404 13.1114 9.53826 12.986C10.4978 12.875 11.2651 12.108 11.3724 11.148C11.4929 10.069 11.6092 8.95402 11.6092 7.81329C11.6092 6.67257 11.4929 5.55762 11.3724 4.47854C11.2651 3.5186 10.4978 2.75161 9.53826 2.64062C8.45404 2.5152 7.3337 2.39148 6.18741 2.39148C5.04112 2.39148 3.92077 2.5152 2.83655 2.64062C1.87704 2.75161 1.10968 3.5186 1.00245 4.47854C0.881909 5.55762 0.765594 6.67257 0.765594 7.81329C0.765594 8.95402 0.881909 10.069 1.00245 11.148Z" fill="#F8F8F8"/>
<path d="M5.38991 2.4101C4.52061 2.44925 3.66796 2.54443 2.83656 2.6406C1.87704 2.75159 1.10968 3.51858 1.00245 4.47852C0.881909 5.5576 0.765594 6.67255 0.765594 7.81327C0.765594 8.954 0.881909 10.0689 1.00245 11.148C1.10968 12.108 1.87704 12.875 2.83655 12.986C3.92077 13.1114 5.04112 13.2351 6.18741 13.2351C7.3337 13.2351 8.45404 13.1114 9.53826 12.986C10.4978 12.875 11.2651 12.108 11.3724 11.1481C11.4591 10.3718 11.5436 9.57705 11.5842 8.76745" stroke="#52C1FF" stroke-width="1.5" stroke-linecap="round"/>
<path d="M10.1084 1.30268L6.42353 5.48384L5.91871 7.85816C5.83748 8.2402 6.23571 8.60169 6.60865 8.48445L8.97145 7.74164L12.7776 3.73673C13.4097 3.07156 13.2994 1.95902 12.5342 1.28221C11.787 0.62125 10.7009 0.630416 10.1084 1.30268Z" fill="#F8F8F8"/>
<path d="M10.1084 1.30268L6.42353 5.48384L5.91871 7.85816C5.83748 8.2402 6.23571 8.60169 6.60865 8.48445L8.97145 7.74164L12.7776 3.73673C13.4097 3.07156 13.2994 1.95902 12.5342 1.28221C11.787 0.62125 10.7009 0.630416 10.1084 1.30268Z" stroke="#52C1FF" stroke-width="1.5" stroke-linecap="round" stroke-linejoin="round"/>
</svg>
